<?xml version="1.0" encoding="utf-8"?>
<!-- Generator: Adobe Illustrator 24.0.2, SVG Export Plug-In . SVG Version: 6.00 Build 0)  -->
<svg version="1.1" id="Capa_1" xmlns="http://www.w3.org/2000/svg" xmlns:xlink="http://www.w3.org/1999/xlink" x="0px" y="0px"
	 viewBox="0 0 28.7 39.7" style="enable-background:new 0 0 28.7 39.7;" xml:space="preserve">
<style type="text/css">
	.st0{fill:#00A8E8;}
</style>
<title>logo-2</title>
<path class="st0" d="M17,1.4v35.7c0,0.8,0.7,1.5,1.5,1.5S20,38,20,37.2V1.4c0-0.8-0.7-1.5-1.5-1.5S17,0.6,17,1.4z"/>
<path class="st0" d="M17.9,35.9c-5.3,1.4-10.9,1-16-1.1c-0.8-0.2-1.6,0.3-1.9,1c-0.2,0.8,0.3,1.6,1,1.9c5.6,2.2,11.7,2.6,17.6,1.1
	c0.8-0.3,1.2-1.2,0.9-1.9C19.3,36.2,18.6,35.8,17.9,35.9L17.9,35.9z"/>
<path class="st0" d="M25.7,1.6V37c0,0.8,0.7,1.5,1.5,1.5s1.5-0.7,1.5-1.5V1.6c0-0.8-0.7-1.5-1.5-1.5S25.7,0.7,25.7,1.6z"/>
</svg>
