<svg id="Capa_1" data-name="Capa 1" xmlns="http://www.w3.org/2000/svg" viewBox="0 0 28.73 39.7"><defs><style>.cls-1{fill:#fff;}</style></defs><title>logo-2</title><path class="cls-1" d="M371.5,279.46V315.2a1.5,1.5,0,0,0,3,0V279.46a1.5,1.5,0,0,0-3,0Z" transform="translate(-354.55 -278.02)"/><path class="cls-1" d="M372.43,313.91a25.63,25.63,0,0,1-16-1.08,1.51,1.51,0,0,0-1.85,1.05,1.54,1.54,0,0,0,1.05,1.85,28.41,28.41,0,0,0,17.57,1.08,1.51,1.51,0,0,0-.8-2.9Z" transform="translate(-354.55 -278.02)"/><path class="cls-1" d="M380.28,279.59V315a1.5,1.5,0,0,0,3,0V279.59a1.5,1.5,0,0,0-3,0Z" transform="translate(-354.55 -278.02)"/></svg>